<?xml version="1.0" encoding="UTF-8" standalone="no"?>
<!-- Generator: Adobe Illustrator 16.0.0, SVG Export Plug-In . SVG Version: 6.00 Build 0)  -->

<svg
   xmlns:dc="http://purl.org/dc/elements/1.1/"
   xmlns:cc="http://creativecommons.org/ns#"
   xmlns:rdf="http://www.w3.org/1999/02/22-rdf-syntax-ns#"
   xmlns:svg="http://www.w3.org/2000/svg"
   xmlns="http://www.w3.org/2000/svg"
   xmlns:sodipodi="http://sodipodi.sourceforge.net/DTD/sodipodi-0.dtd"
   xmlns:inkscape="http://www.inkscape.org/namespaces/inkscape"
   version="1.1"
   id="Layer_1"
   x="0px"
   y="0px"
   width="274.47046"
   height="280.95801"
   viewBox="0 0 274.47046 280.95801"
   enable-background="new 0 0 10000 10000"
   xml:space="preserve"
   inkscape:version="0.91 r13725"
   sodipodi:docname="stacc-s-white.svg"><metadata
     id="metadata11"><rdf:RDF><cc:Work
         rdf:about=""><dc:format>image/svg+xml</dc:format><dc:type
           rdf:resource="http://purl.org/dc/dcmitype/StillImage" /><dc:title></dc:title></cc:Work></rdf:RDF></metadata><defs
     id="defs9" /><sodipodi:namedview
     pagecolor="#ffffff"
     bordercolor="#666666"
     borderopacity="1"
     objecttolerance="10"
     gridtolerance="10"
     guidetolerance="10"
     inkscape:pageopacity="0"
     inkscape:pageshadow="2"
     inkscape:window-width="690"
     inkscape:window-height="480"
     id="namedview7"
     showgrid="false"
     fit-margin-top="0"
     fit-margin-left="0"
     fit-margin-right="0"
     fit-margin-bottom="0"
     inkscape:zoom="0.0236"
     inkscape:cx="137.57712"
     inkscape:cy="140.82099"
     inkscape:window-x="0"
     inkscape:window-y="0"
     inkscape:window-maximized="0"
     inkscape:current-layer="Layer_1" /><g
     id="g3"
     transform="translate(-4862.4229,-4859.863)"><path
       d="m 5068.127,4937.823 c 1.743,-8.371 2.095,-14.731 1.049,-19.098 -1.049,-4.357 -3.581,-7.585 -7.587,-9.678 -4.014,-2.093 -9.245,-3.312 -15.696,-3.663 -6.457,-0.343 -14.044,-0.523 -22.758,-0.523 -8.723,0 -16.742,0.18 -24.068,0.523 -7.325,0.351 -13.864,1.66 -19.621,3.924 -5.754,2.272 -10.552,5.845 -14.387,10.725 -3.842,4.89 -6.802,11.862 -8.894,20.928 -1.399,6.982 -1.833,12.295 -1.31,15.958 0.525,3.661 2.788,6.54 6.802,8.632 4.006,2.093 10.202,3.491 18.573,4.186 8.371,0.703 19.702,1.398 34.01,2.093 16.037,0.703 31.391,1.488 46.041,2.354 14.648,0.874 27.025,3.924 37.146,9.155 10.114,5.233 17.268,13.604 21.453,25.113 4.186,11.512 4.003,28.434 -0.525,50.752 -3.843,18.49 -10.381,33.14 -19.618,43.948 -9.245,10.815 -20.233,19.015 -32.962,24.589 -12.736,5.584 -27.036,9.157 -42.901,10.726 -15.876,1.57 -32.529,2.354 -49.966,2.354 -18.836,0 -35.84,-0.441 -51.011,-1.307 -15.173,-0.876 -27.648,-4.096 -37.409,-9.68 -9.771,-5.575 -16.399,-14.471 -19.882,-26.683 -3.491,-12.206 -2.796,-29.471 2.091,-51.797 l 65.924,0 c -1.748,10.12 -2.445,18.05 -2.092,23.805 0.344,5.756 2.354,10.202 6.016,13.343 3.663,3.139 9.156,5.149 16.481,6.016 7.325,0.875 17.085,1.309 29.299,1.309 9.76,0 18.572,-0.172 26.421,-0.523 7.849,-0.343 14.65,-1.57 20.405,-3.662 5.756,-2.094 10.547,-5.666 14.389,-10.726 3.832,-5.052 6.801,-12.296 8.895,-21.712 1.389,-5.928 2.092,-11.16 2.092,-15.697 0,-4.529 -1.83,-8.371 -5.493,-11.51 -3.663,-3.14 -9.86,-5.494 -18.575,-7.063 -8.723,-1.57 -21.451,-2.526 -38.193,-2.878 -25.114,-0.343 -45.175,-1.74 -60.167,-4.186 -15.002,-2.436 -26.159,-6.711 -33.485,-12.817 -7.325,-6.099 -11.339,-14.65 -12.034,-25.638 -0.703,-10.987 0.866,-25.194 4.708,-42.64 3.834,-18.835 10.024,-33.395 18.575,-43.688 8.543,-10.284 19.005,-17.96 31.391,-23.021 12.377,-5.052 26.241,-8.02 41.594,-8.894 15.345,-0.866 31.917,-1.309 49.704,-1.309 13.604,0 27.287,0.442 41.072,1.309 13.773,0.874 25.808,3.842 36.099,8.894 10.286,5.061 17.963,12.818 23.022,23.282 5.052,10.464 5.492,25.294 1.307,44.473 l -65.925,0 z"
       id="path5"
       inkscape:connector-curvature="0"
       style="fill:#ffffff" /></g></svg>